<svg width="96px" height="66px" viewBox="0 0 96 66" version="1.1" xmlns="http://www.w3.org/2000/svg" xmlns:xlink="http://www.w3.org/1999/xlink">
    <g id="Page-1" stroke="none" stroke-width="1" fill="none" fill-rule="evenodd">
        <g id="noun_1766474_cc" fill-rule="nonzero" fill="#FFFFFF">
            <path d="M93.3,27.6 L68.4,2.8 C65.4,-0.2 60.6,-0.2 57.7,2.8 C54.7,5.8 54.7,10.6 57.7,13.5 L69.6,25.4 L8.1,25.4 C3.9,25.4 0.5,28.8 0.5,33 C0.5,37.2 3.9,40.6 8.1,40.6 L69.6,40.6 L57.7,52.5 C54.7,55.5 54.7,60.3 57.7,63.2 C59.2,64.7 61.1,65.4 63.1,65.4 C65,65.4 67,64.7 68.5,63.2 L93.3,38.4 C94.7,37 95.5,35 95.5,33 C95.5,31 94.7,29.1 93.3,27.6 Z" id="Shape"></path>
        </g>
    </g>
</svg>
