<svg width="35px" height="27px" viewBox="0 0 35 27" version="1.1" xmlns="http://www.w3.org/2000/svg" xmlns:xlink="http://www.w3.org/1999/xlink">
    <g id="Homepage" stroke="none" stroke-width="1" fill="none" fill-rule="evenodd">
        <g id="homepage" transform="translate(-236.000000, -1143.000000)" fill="#FF2121">
            <path d="M236,1156.49971 C236.013145,1157.00866 236.210337,1157.51759 236.504808,1157.84987 L246.600962,1169.32618 C247.437058,1170.18582 248.66751,1170.20169 249.461538,1169.49495 C250.255567,1168.78821 250.334452,1167.42226 249.629808,1166.62587 L242.499231,1158.52494 L268.980769,1158.52494 C270.095519,1158.52494 271,1157.61778 271,1156.49971 C271,1155.38165 270.095519,1154.47448 268.980769,1154.47448 L242.499231,1154.47448 L249.629808,1146.37355 C250.334452,1145.57717 250.234527,1144.23228 249.461538,1143.50448 C248.654385,1142.74502 247.305606,1142.87686 246.600962,1143.67325 L236.504808,1155.14956 C236.147236,1155.55302 236.005257,1155.95648 236,1156.49971 Z" id="arrow" transform="translate(253.500000, 1156.500000) scale(-1, 1) translate(-253.500000, -1156.500000) "></path>
        </g>
    </g>
</svg>
