<?xml version="1.0" encoding="UTF-8"?>
<svg width="90px" height="80px" viewBox="0 0 90 80" version="1.1" xmlns="http://www.w3.org/2000/svg" xmlns:xlink="http://www.w3.org/1999/xlink">
    <g id="Page-1" stroke="none" stroke-width="1" fill="none" fill-rule="evenodd">
        <g id="icon--heart" fill-rule="nonzero" fill="#000000">
            <path d="M65,0 C57.1,0 49.7,3.8 45,10.1 C40.3,3.8 32.9,0 25,0 C11.2,0 0,11.4 0,25.3 C0,32.2 2.6,38.5 7.5,43.3 L7.5,43.3 L43.6,79.3 C44,79.8 44.5,80 45,80 C45.5,80 46,79.8 46.4,79.4 L82.4,43.5 L82.5,43.4 C87.4,38.6 90,32.2 90,25.3 C90,11.4 78.8,0 65,0 Z M79.7,40.5 L79.7,40.5 L79.6,40.6 C79.6,40.6 79.6,40.6 79.5,40.7 L45,75.1 L10.5,40.7 C10.5,40.7 10.5,40.7 10.4,40.6 L10.4,40.6 C6.3,36.6 4,31.1 4,25.3 C4,13.6 13.4,4 25,4 C32.5,4 39.5,8.1 43.3,14.8 C43.7,15.4 44.3,15.8 45,15.8 C45.7,15.8 46.4,15.4 46.7,14.8 C50.4,8.2 57.4,4 65,4 C76.6,4 86,13.5 86,25.3 C86,31.1 83.8,36.5 79.7,40.5 Z" id="Shape"></path>
        </g>
    </g>
</svg>
