<?xml version="1.0" encoding="UTF-8"?>
<svg width="24px" height="24px" viewBox="0 0 24 24" version="1.1" xmlns="http://www.w3.org/2000/svg" xmlns:xlink="http://www.w3.org/1999/xlink">
    <!-- Generator: Sketch 43.2 (39069) - http://www.bohemiancoding.com/sketch -->
    <title>noun_Close_515945</title>
    <desc>Created with Sketch.</desc>
    <defs></defs>
    <g id="Page-1" stroke="none" stroke-width="1" fill="none" fill-rule="evenodd">
        <g id="noun_Close_515945" fill-rule="nonzero" fill="#000000">
            <path d="M12.719,12 L23.851,0.869 C24.05,0.67 24.05,0.348 23.851,0.149 C23.652,-0.049 23.33,-0.049 23.132,0.149 L12,11.281 L0.868,0.149 C0.67,-0.049 0.347,-0.049 0.149,0.149 C-0.05,0.348 -0.05,0.67 0.149,0.869 L11.281,12 L0.149,23.132 C-0.05,23.331 -0.05,23.653 0.149,23.851 C0.249,23.951 0.378,24 0.509,24 C0.639,24 0.769,23.951 0.868,23.851 L12,12.719 L23.132,23.851 C23.231,23.951 23.361,24 23.491,24 C23.621,24 23.752,23.951 23.851,23.851 C24.05,23.652 24.05,23.33 23.851,23.132 L12.719,12 Z" id="Shape"></path>
        </g>
    </g>
</svg>