<?xml version="1.0" encoding="UTF-8"?>
<svg width="20px" height="20px" viewBox="0 0 20 20" version="1.1" xmlns="http://www.w3.org/2000/svg" xmlns:xlink="http://www.w3.org/1999/xlink">
    <!-- Generator: sketchtool 52.1 (67048) - http://www.bohemiancoding.com/sketch -->
    <title>7AD0EE14-C5EC-432E-8A43-63C09DFBD7DF</title>
    <desc>Created with sketchtool.</desc>
    <g id="Page-1" stroke="none" stroke-width="1" fill="none" fill-rule="evenodd">
        <g id="01.-Gender-selectie" transform="translate(-971.000000, -36.000000)" fill="#000000">
            <g id="menu" transform="translate(27.000000, -5.000000)">
                <g id="Group-4" transform="translate(61.000000, 20.000000)">
                    <path d="M891.448973,21 C896.114226,21 899.89377,24.779593 899.89377,29.4450918 C899.89377,31.4776462 899.175874,33.3428135 897.979622,34.8000633 L902.755607,39.5757212 C903.081464,39.9019256 903.081464,40.4285721 902.755607,40.7551126 C902.429029,41.0816291 901.901919,41.0816291 901.576061,40.7551126 L896.8001,35.9797428 C895.342729,37.1753376 893.47731,37.8938563 891.444797,37.8938563 C886.78372,37.8898955 883,34.1103025 883,29.4450918 C883,24.779593 886.78372,21 891.448973,21 Z M891.448973,36.2245461 C895.191622,36.2245461 898.228906,33.187669 898.228906,29.4450918 C898.228906,25.7019145 895.191622,22.6653494 891.448973,22.6653494 C887.706324,22.6653494 884.669041,25.7019145 884.669041,29.4450918 C884.669041,33.187669 887.702148,36.2245461 891.448973,36.2245461 Z" id="Combined-shape-168"></path>
                </g>
            </g>
        </g>
    </g>
</svg>