<?xml version="1.0" encoding="UTF-8"?>
<svg width="100px" height="100px" viewBox="0 0 100 100" version="1.1" xmlns="http://www.w3.org/2000/svg" xmlns:xlink="http://www.w3.org/1999/xlink">
    <!-- Generator: Sketch 43.2 (39069) - http://www.bohemiancoding.com/sketch -->
    <title>Shape</title>
    <desc>Created with Sketch.</desc>
    <defs></defs>
    <g id="Page-1" stroke="none" stroke-width="1" fill="none" fill-rule="evenodd">
        <g id="noun_chat_1459451" transform="translate(-1.000000, 0.000000)" fill-rule="nonzero" fill="#FFFFFF">
            <path d="M15,77.5 C15.7655374,78.1998054 16.0025121,79.3083652 15.59,80.26 C14.97,81.75 14.44,83.26 13.68,84.69 C11.84,88.12 9.07,90.69 6.28,93.26 C5,94.48 3.64,95.7 2.45,97 C1.26,98.3 1.56,98.88 3.21,99.3 C5.03668698,99.7664003 6.91471168,100.001573 8.8,100 C11.2200233,99.9635977 13.6310109,99.6957101 16,99.2 C24,97.63 31.6,94.56 39,91.06 C39.6211949,90.7479613 40.3049158,90.5804497 41,90.57 C41.2412147,90.5707986 41.4819802,90.5908624 41.72,90.63 C44.8048145,91.1312587 47.9247289,91.3853996 51.05,91.39 C55.1672186,91.4106081 59.2724175,90.944032 63.28,90 C76.57,86.81 87.35,79.72 94.77,67.7 C100.145276,59.1643347 102.14883,48.9326575 100.39,39 C98.33,26.6 91.8,17.05 82,10 C73.1860771,3.52226651 62.5382759,0.0197003337 51.6,0 C49,0.17 46.38,0.19 43.8,0.55 C32.62,2.09 22.67,6.55 14.45,14.6 C6.74,22.18 2,31.36 1.14,42.47 C0.28650083,52.5720394 3.15675238,62.6374817 9.21,70.77 C11.022332,73.1119402 12.9549287,75.3582918 15,77.5 L15,77.5 Z M7.12,42.94 C7.85,33.66 11.62,25.79 18.65,18.88 C25.68,11.97 34.16,7.88 44.65,6.49 C46.15,6.28 47.76,6.21 49.46,6.12 L51.77,6 C61.3717975,6.06629932 70.7093473,9.15199392 78.46,14.82 C87.46,21.35 92.75,29.57 94.46,39.96 C95.9742349,48.46965 94.2590534,57.238114 89.65,64.55 C83.34,74.78 74.26,81.19 61.87,84.15 C58.3443746,84.9849763 54.7331477,85.4044961 51.11,85.4 C48.3028013,85.3922914 45.500652,85.1615655 42.73,84.71 C40.6006433,84.3629444 38.4160588,84.6880106 36.48,85.64 C30.67,88.39 22.96,91.74 14.9,93.31 L14.8,93.31 C16.4344868,91.5651339 17.845341,89.6235299 19,87.53 C19.632539,86.3069295 20.1934842,85.0481418 20.68,83.76 C20.84,83.36 20.99,82.97 21.16,82.58 C22.4771294,79.5008341 21.8320014,75.9329614 19.52,73.51 C19,72.93 18.52,72.36 17.95,71.78 C16.584666,70.3514645 15.3025525,68.8456489 14.11,67.27 C8.85739487,60.3004876 6.36772114,51.6347134 7.12,42.94 L7.12,42.94 Z" id="Shape"></path>
        </g>
    </g>
</svg>