<?xml version="1.0" encoding="UTF-8"?>
<svg width="76px" height="82px" viewBox="0 0 76 82" version="1.1" xmlns="http://www.w3.org/2000/svg" xmlns:xlink="http://www.w3.org/1999/xlink">
    <!-- Generator: Sketch 43.2 (39069) - http://www.bohemiancoding.com/sketch -->
    <title>noun_Delete_1534857</title>
    <desc>Created with Sketch.</desc>
    <defs></defs>
    <g id="Page-1" stroke="none" stroke-width="1" fill="none" fill-rule="evenodd">
        <g id="noun_Delete_1534857" fill-rule="nonzero" fill="#000000">
            <g id="Group">
                <path d="M75.5,11.8 L50.1,11.8 L50.1,0.5 L24.8,0.5 L24.8,11.8 L0.4,11.8 L0.4,13.9 L7.5,13.9 L12.7,81.6 L62.3,81.6 L67.5,13.9 L75.7,13.9 L75.7,11.8 L75.5,11.8 L75.5,11.8 Z M26.9,2.5 L48.1,2.5 L48.1,11.7 L26.9,11.7 L26.9,2.5 Z M60.3,79.4 L14.6,79.4 L9.6,13.8 L24.8,13.8 L26.9,13.8 L48.1,13.8 L50.2,13.8 L65.4,13.8 L60.3,79.4 Z" id="Shape"></path>
                <rect id="Rectangle-path" x="36.4" y="26.6" width="2.1" height="40.3"></rect>
                <rect id="Rectangle-path" transform="translate(49.849553, 46.698156) rotate(3.107080) translate(-49.849553, -46.698156) " x="48.7995848" y="26.4987629" width="2.09993695" height="40.398787"></rect>
                <rect id="Rectangle-path" transform="translate(25.003880, 46.717513) rotate(86.900098) translate(-25.003880, -46.717513) " x="4.80462325" y="45.6675515" width="40.3985126" height="2.09992269"></rect>
            </g>
        </g>
    </g>
</svg>