<?xml version="1.0" encoding="UTF-8"?>
<svg width="40px" height="40px" viewBox="0 0 40 40" version="1.1" xmlns="http://www.w3.org/2000/svg" xmlns:xlink="http://www.w3.org/1999/xlink">
    <!-- Generator: Sketch 43.2 (39069) - http://www.bohemiancoding.com/sketch -->
    <title>icon--zoom</title>
    <desc>Created with Sketch.</desc>
    <defs></defs>
    <g id="Page-1" stroke="none" stroke-width="1" fill="none" fill-rule="evenodd">
        <g id="icon--zoom" fill-rule="nonzero" fill="#000000">
            <path d="M33.647858,5.773505 C30.014592,2.140239 25.105843,0.070245 19.968068,0.001748 C14.831992,-0.066651 9.871226,1.874698 6.143043,5.411451 C2.41522,8.948152 0.216267,13.800507 0.015411,18.934677 C-0.187777,24.068745 1.624829,29.07787 5.060948,32.898241 C8.499076,36.716603 13.292925,39.040293 18.41937,39.376082 C23.547361,39.714059 28.602734,38.034214 32.509627,34.69672 L34.698589,32.513938 C37.758491,28.953082 39.436302,24.410714 39.426259,19.71482 C39.44189,14.482385 37.359716,9.461002 33.647858,5.773505 Z M28.980805,21.259964 L21.255602,21.259964 L18.16552,21.259964 L10.440316,21.259964 L10.440316,18.169882 L18.16552,18.169882 L21.255602,18.169882 L28.980805,18.169882 L28.980805,21.259964 Z" id="zoom-icon"></path>
        </g>
    </g>
</svg>