<?xml version="1.0" encoding="UTF-8"?>
<svg width="100pt" height="100pt" version="1.1" viewBox="0 0 100 100" xmlns="http://www.w3.org/2000/svg">
 <path d="m62.758 48.887c5.5859-3.9922 9.2422-10.512 9.2422-17.887 0-12.129-9.8711-22-22-22s-22 9.8711-22 22c0 7.375 3.6562 13.895 9.2422 17.887-18.059 5.4844-31.242 22.285-31.242 42.113h6c0-20.953 17.047-38 38-38s38 17.047 38 38h6c0-19.824-13.184-36.629-31.242-42.113zm-28.758-17.887c0-8.8203 7.1797-16 16-16s16 7.1797 16 16-7.1797 16-16 16-16-7.1797-16-16z"/>
</svg>
