<?xml version="1.0" encoding="UTF-8"?>
<svg width="40px" height="40px" viewBox="0 0 40 40" version="1.1" xmlns="http://www.w3.org/2000/svg" xmlns:xlink="http://www.w3.org/1999/xlink">
    <!-- Generator: sketchtool 50 (54983) - http://www.bohemiancoding.com/sketch -->
    <title>42C69C23-6794-427B-A7AD-40E1A019FBDB</title>
    <desc>Created with sketchtool.</desc>
    <defs></defs>
    <g id="Product-detail" stroke="none" stroke-width="1" fill="none" fill-rule="evenodd">
        <g id="Product-detail-" transform="translate(-566.000000, -461.000000)" fill="#000000">
            <g id="image" transform="translate(61.000000, 124.000000)">
                <path d="M538.647858,342.773505 C535.014592,339.140239 530.105843,337.070245 524.968068,337.001748 C519.831992,336.933349 514.871226,338.874698 511.143043,342.411451 C507.41522,345.948152 505.216267,350.800507 505.015411,355.934677 C504.812223,361.068745 506.624829,366.07787 510.060948,369.898241 C513.499076,373.716603 518.292925,376.040293 523.41937,376.376082 C528.547361,376.714059 533.602734,375.034214 537.509627,371.69672 L539.698589,369.513938 C542.758491,365.953082 544.436302,361.410714 544.426259,356.71482 C544.44189,351.482385 542.359716,346.461002 538.647858,342.773505 Z M533.980805,358.259964 L526.255602,358.259964 L526.255602,365.985167 L523.16552,365.985167 L523.16552,358.259964 L515.440316,358.259964 L515.440316,355.169882 L523.16552,355.169882 L523.16552,347.444678 L526.255602,347.444678 L526.255602,355.169882 L533.980805,355.169882 L533.980805,358.259964 Z" id="zoom-icon"></path>
            </g>
        </g>
    </g>
</svg>