<?xml version="1.0" encoding="UTF-8"?>
<svg width="100pt" height="100pt" version="1.1" viewBox="0 0 100 100" xmlns="http://www.w3.org/2000/svg">
 <g>
  <path d="m84.406 97.656h-0.03125-68.75c-0.64844 0-1.2656-0.26562-1.707-0.73828-0.44531-0.47266-0.67188-1.1055-0.63281-1.75l4.6875-75c0.078125-1.2383 1.1016-2.1992 2.3398-2.1992h59.375c1.2383 0 2.2617 0.96094 2.3398 2.1953l4.6641 74.617c0.039063 0.17188 0.058594 0.34766 0.058594 0.52734 0 1.3008-1.0469 2.3477-2.3438 2.3477zm-66.285-4.6875h63.762l-4.3945-70.312h-54.973z"/>
  <path d="m64.844 36.719c-1.293 0-2.3438-1.0469-2.3438-2.3438 0-16.113-6.5859-27.344-12.5-27.344s-12.5 11.23-12.5 27.344c0 1.2969-1.0508 2.3438-2.3438 2.3438s-2.3438-1.0469-2.3438-2.3438c0-17.961 7.5508-32.031 17.188-32.031s17.188 14.07 17.188 32.031c0 1.2969-1.0508 2.3438-2.3438 2.3438z"/>
 </g>
</svg>
