<?xml version="1.0" encoding="UTF-8"?>
<svg width="100pt" height="100pt" version="1.1" viewBox="0 0 100 100" xmlns="http://www.w3.org/2000/svg">
 <path d="m86.016 21.402c-4.5312-4.5312-10.387-7.0273-16.488-7.0273-7.5312 0-14.605 3.7891-19.531 10.305-4.9258-6.5156-12-10.305-19.531-10.305-6.1016 0-11.957 2.4961-16.492 7.0312-3.0469 3.0508-8.0039 9.7383-6.9609 20.281 1.082 10.906 9.1797 28.445 41.602 50.062l1.3867 0.91797 1.3867-0.92188c32.418-21.617 40.52-39.152 41.598-50.059 1.043-10.543-3.9141-17.234-6.9688-20.285zm1.9961 19.793c-0.96094 9.6797-8.375 25.375-38.008 45.461-29.641-20.086-37.055-35.777-38.012-45.461-0.83984-8.4961 3.1016-13.832 5.5234-16.258 3.5898-3.5859 8.1914-5.5625 12.957-5.5625 6.9062 0 13.398 4.1445 17.359 11.082l2.168 3.8008 2.1719-3.7969c4.0234-7.0391 10.352-11.082 17.359-11.082 4.7656 0 9.3672 1.9766 12.957 5.5625 2.4258 2.4258 6.3672 7.7578 5.5234 16.254z"/>
</svg>
