<?xml version="1.0" encoding="UTF-8"?>
<svg width="230px" height="26px" viewBox="0 0 230 26" version="1.1" xmlns="http://www.w3.org/2000/svg" xmlns:xlink="http://www.w3.org/1999/xlink">
    <g id="logo" stroke="none" stroke-width="1" fill="none" fill-rule="evenodd">
        <g id="Group" transform="translate(2.000000, 1.000000)">
            <path d="M35.9493373,23.5379459 C36.7830528,23.5379459 37.5894796,23.5379459 38.4678919,23.5379459 C38.4782428,23.3336475 38.4947101,23.1544134 38.4947101,22.9751794 C38.4961216,19.5139286 38.5045905,16.0522049 38.4848297,12.5914271 C38.4824773,12.0896663 38.4100212,11.5656786 38.2519352,11.0918197 C37.8139052,9.77617558 36.6800146,9.20442368 35.1589073,9.52411292 C32.6892841,10.0424256 31.3408482,11.7070797 30.7277945,14.0588764 C30.5861758,14.6013076 30.5226591,15.1787345 30.5174836,15.7410281 C30.4948999,18.1992303 30.5071328,20.6588512 30.5080737,23.1175262 C30.5080737,23.2281879 30.524541,23.3393225 30.5395968,23.5336897 C31.279684,23.5336897 32.0051858,23.5280148 32.7306876,23.5360543 C33.0797942,23.5398376 33.0797942,23.5516604 33.052976,23.973026 C30.407388,23.973026 27.759918,23.973026 25.1143301,23.973026 C25.0414035,23.5568625 25.0414035,23.5412563 25.3829821,23.5370001 C26.1113069,23.526596 26.8401022,23.5336897 27.6013616,23.5336897 C27.6013616,18.9402851 27.6013616,14.4111966 27.6013616,9.83245224 C26.7610592,9.83245224 25.9414586,9.83245224 25.1213875,9.83245224 C25.080925,9.78326928 25.0404625,9.73408632 25,9.68537628 C25.1068021,9.57613336 25.2126633,9.37278074 25.3213474,9.371362 C27.0118325,9.35149965 28.7027881,9.35764752 30.4516145,9.35764752 C30.4516145,10.5555363 30.4516145,11.7165379 30.4516145,12.8784853 C30.490195,12.8907811 30.5287755,12.9026039 30.567356,12.9153725 C30.725442,12.6320976 30.882587,12.3483498 31.0411435,12.0650748 C32.9791085,8.60004078 37.0286507,8.45816686 39.4422851,9.74874663 C40.5968775,10.3658982 41.2263985,11.3784051 41.3162629,12.6637828 C41.4070682,13.962875 41.3934239,15.2709526 41.4009518,16.5752468 C41.4127141,18.6745079 41.4037748,20.774242 41.4037748,22.8735031 C41.4037748,23.0749641 41.4037748,23.2759521 41.4037748,23.5336897 C42.1880883,23.5336897 42.8985343,23.5384189 43.6089803,23.5308523 C43.8992752,23.5280148 44.1039401,23.5738873 43.9439721,23.9985633 C43.7783582,23.9985633 43.5948655,23.9985633 43.4113728,23.9985633 C41.0593731,23.9985633 38.7069029,23.9980904 36.3549032,23.9990362 C36.0848396,23.9995091 35.7860759,24.0401796 35.9493373,23.5379459" id="Fill-1" fill="#000000"></path>
            <path d="M61.5393219,23.533258 C62.3048427,23.533258 63.0176664,23.539406 63.729549,23.5304205 C64.040086,23.5261642 64.2071173,23.6023046 64.0513783,23.9726025 C61.4075789,23.9726025 58.7600155,23.9726025 56.1143341,23.9726025 C56.0399934,23.5564312 56.0399934,23.5408248 56.3815841,23.5365685 C57.1099346,23.5261642 57.8387556,23.533258 58.6005124,23.533258 C58.6005124,18.9407133 58.6005124,14.4115401 58.6005124,9.83223723 C57.7611214,9.83223723 56.9414918,9.83223723 56.1218623,9.83223723 C56.0813983,9.78305335 56.0409344,9.73434239 56,9.68515851 C56.1068059,9.57591355 56.2126708,9.3720842 56.3208883,9.37066544 C58.011433,9.35080272 59.7024483,9.3569507 61.4513364,9.3569507 C61.4513364,10.554389 61.4513364,11.7158852 61.4513364,12.8778544 C61.4885068,12.8892045 61.5256771,12.9005546 61.5628474,12.9123777 C61.7143519,12.6465955 61.8700909,12.3841239 62.0159492,12.1159772 C63.8994033,8.66033672 67.9090951,8.43617173 70.3929209,9.72015473 C71.5941345,10.3415741 72.2377931,11.384367 72.322485,12.7194255 C72.4029424,14.0010439 72.3940027,15.2888103 72.4010603,16.5742121 C72.4118821,18.6735124 72.4038834,20.7732857 72.4038834,22.8725861 C72.4038834,23.0740509 72.4038834,23.2755156 72.4038834,23.533258 C73.1872836,23.533258 73.8982252,23.5379873 74.6082258,23.5308934 C74.8980603,23.527583 75.104144,23.5720376 74.9441704,23.9981403 C74.7790212,23.9981403 74.595522,23.9981403 74.4120228,23.9981403 C72.0599401,23.9981403 69.7078573,23.9976674 67.3553041,23.9990861 C67.086172,23.9990861 66.7859862,24.0411762 66.9436073,23.5540666 C67.751474,23.5540666 68.5739267,23.5540666 69.4669559,23.5540666 C69.4777776,23.3332121 69.494716,23.1539747 69.494716,22.9747373 C69.4961275,19.5134218 69.5045967,16.0521063 69.4848353,12.5907908 C69.4820122,12.0894935 69.4095536,11.565496 69.2519325,11.0911554 C68.8148281,9.77643244 67.682309,9.20466984 66.159266,9.52389214 C63.6886146,10.0407958 62.3410721,11.7059539 61.7275262,14.0577945 C61.5859025,14.600236 61.5223835,15.1776736 61.5172079,15.7395049 C61.4946234,18.1982259 61.5068567,20.6574199 61.5077977,23.1161409 C61.5077977,23.2268046 61.5242656,23.3379413 61.5393219,23.533258" id="Fill-2" fill="#000000"></path>
            <path d="M181.093581,23.9716122 C180.94545,23.5812797 181.139196,23.5278159 181.436868,23.531601 C182.147425,23.5405905 182.857982,23.5349129 183.60616,23.5349129 C183.60616,18.9488607 183.60616,14.4181647 183.60616,9.82075743 C182.763931,9.82075743 181.929226,9.82075743 181.094051,9.82075743 C181.062544,9.75830422 181.031507,9.69585102 181,9.63292469 C181.125088,9.53924489 181.249236,9.36513293 181.375264,9.36371354 C183.047966,9.34573458 184.720197,9.35141215 186.448859,9.35141215 C186.448859,10.5432274 186.448859,11.707128 186.448859,12.8715017 C186.491652,12.8866419 186.534445,12.9022552 186.577709,12.9173954 C186.668468,12.7517998 186.76393,12.5876235 186.849517,12.418716 C188.437102,9.28186199 191.575121,8.40751716 194.612036,9.37222988 C196.279565,9.90166271 197.293437,11.0821229 197.334819,12.8729211 C197.408179,16.0684433 197.387958,19.2668043 197.406298,22.464219 C197.408179,22.7991952 197.406298,23.1346446 197.406298,23.5344398 C198.178459,23.5344398 198.888076,23.5386979 199.597692,23.5325472 C199.876084,23.5301816 200.103688,23.553365 199.950855,24 C198.644013,24 197.314128,24 195.983773,24 C194.650597,24 193.31695,24 191.966845,24 C191.838935,23.6830027 191.88502,23.5273428 192.245237,23.5320741 C192.974134,23.5420098 193.703501,23.535386 194.466727,23.535386 C194.479894,23.3371444 194.498234,23.1914203 194.498234,23.0461693 C194.499645,19.5450049 194.500115,16.0443137 194.495883,12.5436224 C194.495412,12.2800888 194.481305,12.0122971 194.433339,11.754441 C194.096635,9.93904001 192.928989,9.14039603 191.122735,9.52930915 C188.678814,10.0549569 187.35034,11.7161175 186.737596,14.0424993 C186.594638,14.5856529 186.530683,15.1628719 186.52551,15.7254238 C186.503408,18.2041536 186.515635,20.6833565 186.516576,23.1625593 C186.516576,23.2548197 186.531624,23.3475533 186.548083,23.5349129 C187.27651,23.5349129 188.000704,23.5297085 188.724899,23.5368054 C189.079942,23.5401173 189.079472,23.5505262 189.071477,23.9716122 C186.425816,23.9716122 183.780155,23.9716122 181.093581,23.9716122" id="Fill-3" fill="#000000"></path>
            <path d="M136.53963,23.5356655 C137.305128,23.5356655 138.01699,23.5418149 138.729322,23.5328273 C139.038439,23.5285701 139.208288,23.6023627 139.051613,23.9736909 C136.40742,23.9736909 133.759935,23.9736909 131.114331,23.9736909 C131.041404,23.5583709 131.040933,23.543234 131.383455,23.5389767 C132.111784,23.5285701 132.839643,23.5356655 133.601377,23.5356655 C133.601377,18.9411293 133.601377,14.4113982 133.601377,9.83105287 C132.76107,9.83105287 131.941464,9.83105287 131.121859,9.83105287 C131.081396,9.7818578 131.040463,9.73313575 131,9.68394068 C131.107273,9.57467085 131.212665,9.37126813 131.321349,9.36984905 C133.011845,9.3499818 134.70234,9.35613119 136.451177,9.35613119 C136.451177,10.5538421 136.451177,11.7156027 136.451177,12.8773633 C136.488816,12.888716 136.525986,12.9005417 136.563625,12.9123675 C136.715125,12.6469979 136.87086,12.3839935 137.016714,12.1157857 C138.871412,8.70713462 142.820763,8.42710112 145.342626,9.6938743 C146.572035,10.3111779 147.234494,11.3608305 147.322477,12.7193714 C147.404344,14.0008085 147.393993,15.288868 147.40105,16.5745624 C147.411871,18.6743406 147.404344,20.7741189 147.404344,22.8738971 C147.404344,23.0754077 147.404344,23.2769183 147.404344,23.5356655 C148.18725,23.5356655 148.89723,23.5403958 149.60768,23.5333004 C149.895624,23.5299892 150.104525,23.5720888 149.944556,23.9982884 C149.741301,23.9982884 149.520168,23.9982884 149.299034,23.9982884 C146.98466,23.9982884 144.670286,23.9982884 142.355442,23.9987615 C142.08867,23.9987615 141.783318,24.0460644 141.945168,23.5560058 C142.752071,23.5560058 143.574499,23.5560058 144.467032,23.5560058 C144.478324,23.335101 144.494791,23.1558228 144.494791,22.9765446 C144.496202,19.5144412 144.50373,16.0523377 144.485381,12.5907074 C144.483499,12.1072712 144.414336,11.6039677 144.268011,11.145129 C143.834213,9.78706112 142.705962,9.19908537 141.159439,9.52311063 C138.68886,10.040605 137.341827,11.7061421 136.727829,14.0580451 C136.585739,14.60061 136.522692,15.1781791 136.517517,15.7401382 C136.494933,18.199419 136.506695,20.6591727 136.508107,23.1184534 C136.508107,23.2291423 136.524104,23.3398313 136.53963,23.5356655" id="Fill-4" fill="#000000"></path>
            <path d="M9.127145,16.0898275 C8.45780698,16.4410285 7.92147538,16.7570116 7.35787267,17.0113634 C6.66030668,17.3268573 5.93546958,17.5792525 5.23120542,17.8805615 C3.55666428,18.5971485 2.82991342,19.8185259 2.95957075,21.6655107 C3.08874964,23.5076042 4.03845369,24.3753349 5.83786775,24.2956054 C7.30859332,24.23055 8.52335331,23.2087409 8.76735787,21.4913776 C9.01997436,19.7109156 9.01758216,17.8923008 9.127145,16.0898275 Z M14.959811,24.1733209 C13.8957597,24.9794202 12.7068355,25.1290964 11.4255723,24.9070278 C10.0046046,24.6605023 9.40751103,23.6396714 9.06494775,22.3214447 C8.98983262,22.3742716 8.9314629,22.3923697 8.91663125,22.429055 C8.23676755,24.1082655 6.91196629,24.8732773 5.23072698,24.9383326 C4.19777432,24.9789311 3.12319734,24.8879514 2.12421394,24.6267518 C0.792714516,24.2779964 0.0721833848,23.2830899 0.00615861982,21.8337742 C-0.0565170629,20.4558726 0.352070976,19.2927027 1.55917592,18.602529 C2.30075842,18.1789356 3.12989551,17.9069749 3.93606746,17.613003 C5.08575956,17.1938118 6.25650304,16.836252 7.40619514,16.4170608 C8.39226066,16.0565661 9.02810785,15.350251 9.04246106,14.2447992 C9.05585739,13.2176096 9.03624133,12.1786806 8.8970152,11.1637194 C8.77453448,10.2715319 8.1626093,9.72565394 7.27462405,9.57646687 C6.4316122,9.43510601 5.59769071,9.46885652 4.79678161,9.81272049 C4.16763258,10.0822355 3.8178927,10.5542536 3.86334453,11.2693732 C3.90066287,11.8529148 3.96668764,12.4349889 4.02601424,13.0165739 C4.10830598,13.8265863 3.72029087,14.3313767 2.93325654,14.4311608 C1.50893968,14.6121418 0.880747536,13.9562079 1.07499431,12.495642 C1.24818971,11.1945351 1.99312129,10.2954996 3.10501661,9.77212204 C5.202499,8.78406343 7.36983368,8.74395412 9.49937157,9.65375066 C10.9825366,10.2876734 11.8336819,11.5158987 11.901142,13.1535325 C11.9944379,15.4382958 11.9628608,17.7279504 11.9839122,20.0156485 C11.9930026,21.0130007 11.9762571,22.0113313 12.013097,23.0077052 C12.0508938,24.0417428 12.6259791,24.4849018 13.6192212,24.2633223 C13.9311643,24.1933755 14.2177501,24.0075031 14.5277794,23.9189692 C14.6703546,23.8783707 14.8416363,23.9434261 15,23.9605459 C14.9870821,24.0314709 14.9736858,24.1023959 14.959811,24.1733209 Z" id="Fill-6" fill="#000000"></path>
            <path d="M95.1313643,16.0843048 C94.4784959,16.4317849 93.9601261,16.7430488 93.413995,16.9887319 C92.6984244,17.3117416 91.9550926,17.5701493 91.2332997,17.8794555 C89.5585296,18.5969285 88.8324289,19.8184924 88.9611837,21.6669886 C89.0899386,23.5086332 90.0419585,24.3783122 91.8416543,24.2980492 C93.31348,24.2324685 94.5273174,23.2105833 94.7714251,21.4917804 C95.0241483,19.7103331 95.0217551,17.8912013 95.1313643,16.0843048 Z M100.990427,24.1536737 C99.9388496,24.9680496 98.7580385,25.1241709 97.4728834,24.9176405 C96.0178102,24.6837032 95.4233362,23.6417523 95.0681834,22.3580336 C95.004524,22.3756523 94.952352,22.3756523 94.9446937,22.3942498 C94.2568844,24.0910294 92.9267369,24.8779984 91.2194191,24.944558 C90.2042183,24.9842001 89.1497689,24.8941489 88.1666372,24.6425929 C86.8058565,24.2946234 86.070183,23.2957404 86.0055663,21.8201735 C85.9443,20.4150815 86.3827366,19.250289 87.6214634,18.5636487 C88.3528291,18.1584184 89.1631709,17.8951166 89.9519737,17.6083232 C91.0849205,17.19722 92.2346198,16.8360364 93.3694812,16.4298273 C94.3818101,16.0671755 95.0322853,15.3585119 95.0490377,14.2274886 C95.0643543,13.2188175 95.043294,12.19889 94.9111887,11.2019647 C94.7853057,10.2505544 94.1405743,9.69067095 93.2081787,9.55510477 C92.3662465,9.43275262 91.5300581,9.46603241 90.7350329,9.83945116 C90.1534822,10.1125412 89.8308772,10.56035 89.8667754,11.2205622 C89.899323,11.8244924 89.9711194,12.4259756 90.0309497,13.0284376 C90.1065753,13.7928938 89.7676964,14.3307538 89.0325015,14.4017181 C87.5554107,14.5446254 86.8996705,14.1746325 87.0748536,12.5346243 C87.218925,11.1814095 88.0125143,10.2686625 89.1717864,9.73471772 C91.2198977,8.79309559 93.3307112,8.76226285 95.4118488,9.60942912 C96.9535563,10.2373403 97.8313866,11.4775017 97.9074908,13.165472 C98.0027406,15.274823 97.9692357,17.3900469 97.98886,19.5028238 C97.9998688,20.6769151 97.9826377,21.8519851 98.0194931,23.0246081 C98.0510835,24.0141923 98.5737611,24.4419354 99.5267384,24.2789623 C99.8593949,24.2226803 100.167641,24.0308321 100.497425,23.9422492 C100.652027,23.9006495 100.831518,23.9569314 101,23.9686773 C100.997128,24.0303427 100.993778,24.0920082 100.990427,24.1536737 Z" id="Fill-7" fill="#000000"></path>
            <path d="M220.129039,16.0501226 C219.542758,16.3849814 219.130349,16.6666338 218.682495,16.8657917 C217.860072,17.2314029 217.010346,17.5320924 216.183612,17.8894053 C214.517691,18.6098886 213.79825,19.8521854 213.953921,21.6909799 C214.107198,23.5043915 215.039309,24.3415385 216.821146,24.2688067 C218.29643,24.2082783 219.516413,23.1939393 219.763092,21.4820592 C220.018393,19.7037931 220.016477,17.8874527 220.129039,16.0501226 Z M225.969345,24.1423805 C224.905512,24.948287 223.718099,25.0942385 222.433453,24.8809247 C220.983555,24.6392992 220.410685,23.5732182 220.02462,22.2279255 C219.918285,22.4104869 219.850268,22.5022558 219.808117,22.6047636 C219.284583,23.8700026 218.284455,24.5319101 217.026153,24.8106336 C215.833472,25.0752014 214.620194,25.0742251 213.442362,24.7335087 C212.192681,24.3722908 211.224167,23.6854886 211.04742,22.2245085 C210.83427,20.4643033 211.332418,19.2298166 212.689392,18.4990825 C213.393026,18.1202919 214.166113,17.8693918 214.921478,17.5999428 C216.020756,17.2079725 217.134883,16.8574935 218.237993,16.4777265 C219.340146,16.0984477 220.048569,15.3574628 220.060065,14.12981 C220.069645,13.1428064 220.03899,12.1445758 219.897688,11.1702637 C219.764529,10.2501342 219.131307,9.70537852 218.221708,9.56870147 C217.358571,9.4393464 216.502618,9.4725394 215.693128,9.86255713 C215.13846,10.1295655 214.824243,10.5679084 214.857772,11.2029685 C214.889386,11.8053238 214.957881,12.4057266 215.019191,13.0061294 C215.101098,13.816429 214.717908,14.3206698 213.931409,14.4236657 C212.504981,14.6106204 211.872717,13.9555468 212.062396,12.4989599 C212.218546,11.2966899 212.871408,10.4102416 213.890216,9.89038067 C216.162058,8.73106638 218.503353,8.70177844 220.797228,9.81472016 C222.105346,10.4492922 222.82287,11.6247149 222.898071,13.0842305 C222.994827,14.9532893 222.966567,16.8291818 222.984289,18.7021456 C222.998659,20.1270039 222.978062,21.5523503 223.015423,22.9767205 C223.042247,24.0120491 223.622302,24.4547852 224.616682,24.2375663 C224.928982,24.1692278 225.216375,23.9847137 225.52628,23.8953855 C225.669977,23.8538943 225.840976,23.9129583 226,23.9261378 C225.989941,23.9978933 225.979403,24.070625 225.969345,24.1423805 Z" id="Fill-8" fill="#000000"></path>
            <path d="M166.417557,23.5563195 C167.194091,23.5563195 167.896048,23.5616709 168.598471,23.5534006 C168.882796,23.5499951 169.096273,23.5840496 168.955509,24 C166.328997,24 163.691298,24 161.054065,24 C160.904445,23.6195635 161.082031,23.5495086 161.382204,23.5534006 C162.08789,23.5616709 162.79311,23.5563195 163.540279,23.5563195 C163.540279,18.8509714 163.540279,14.1928129 163.540279,9.51519476 C162.699422,9.44465346 161.854837,9.37411215 161.012115,9.29140856 C161.003725,9.29043557 161.011183,9.11870399 161.011183,9 C162.81222,9 164.576901,9 166.417557,9 C166.417557,13.831836 166.417557,18.6592936 166.417557,23.5563195" id="Fill-10" fill="#000000"></path>
            <path d="M115.328431,17.6313003 C114.00299,17.6313003 112.753343,17.6313003 111.503696,17.6313003 C111.404396,17.6313003 111.299819,17.649919 111.207235,17.6241393 C111.130481,17.6036111 111.068599,17.5305687 111,17.4809189 C111.069558,17.4179019 111.135278,17.3057126 111.209154,17.3009386 C111.506095,17.2799329 111.805435,17.2913906 112.103815,17.2913906 C113.153902,17.2909132 114.204469,17.2913906 115.302527,17.2913906 C115.302527,15.8505933 115.302527,14.4308017 115.302527,13.0162616 C115.666628,12.9790243 115.671425,12.9790243 115.671904,13.3160696 C115.673823,14.6169883 115.672864,15.9169521 115.672864,17.2718171 C117.114875,17.2718171 118.540096,17.2718171 119.94421,17.2718171 C120.105872,17.6503964 119.885205,17.6322551 119.677011,17.6317777 C118.511313,17.6308229 117.345616,17.6313003 116.180878,17.6313003 C116.02785,17.6313003 115.875302,17.6313003 115.672864,17.6313003 C115.672864,18.3178035 115.672864,18.9642049 115.672864,19.6106063 C115.672864,20.289471 115.681978,20.9683357 115.664709,21.646723 C115.661831,21.7660733 115.550538,21.8820819 115.489135,22 C115.435887,21.9813813 115.382639,21.9627627 115.328431,21.9446214 C115.328431,20.5243525 115.328431,19.1031287 115.328431,17.6313003" id="Fill-11" fill="#000000"></path>
            <path d="M115.328431,17.6313003 C114.00299,17.6313003 112.753343,17.6313003 111.503696,17.6313003 C111.404396,17.6313003 111.299819,17.649919 111.207235,17.6241393 C111.130481,17.6036111 111.068599,17.5305687 111,17.4809189 C111.069558,17.4179019 111.135278,17.3057126 111.209154,17.3009386 C111.506095,17.2799329 111.805435,17.2913906 112.103815,17.2913906 C113.153902,17.2909132 114.204469,17.2913906 115.302527,17.2913906 C115.302527,15.8505933 115.302527,14.4308017 115.302527,13.0162616 C115.666628,12.9790243 115.671425,12.9790243 115.671904,13.3160696 C115.673823,14.6169883 115.672864,15.9169521 115.672864,17.2718171 C117.114875,17.2718171 118.540096,17.2718171 119.94421,17.2718171 C120.105872,17.6503964 119.885205,17.6322551 119.677011,17.6317777 C118.511313,17.6308229 117.345616,17.6313003 116.180878,17.6313003 C116.02785,17.6313003 115.875302,17.6313003 115.672864,17.6313003 C115.672864,18.3178035 115.672864,18.9642049 115.672864,19.6106063 C115.672864,20.289471 115.681978,20.9683357 115.664709,21.646723 C115.661831,21.7660733 115.550538,21.8820819 115.489135,22 C115.435887,21.9813813 115.382639,21.9627627 115.328431,21.9446214 C115.328431,20.5243525 115.328431,19.1031287 115.328431,17.6313003 Z" id="Stroke-12" stroke="#000000" stroke-width="0.5"></path>
            <mask id="mask-2" fill="white">
                <use xlink:href="#path-1"></use>
            </mask>
            <g id="Clip-14"></g>
            <path d="M164.000102,1.47635944 C164.009979,0.657109677 164.689924,-0.00774903251 165.51052,6.82362634e-05 C166.335067,0.00788550504 167.001184,0.678607166 166.999998,1.50020211 C166.998813,2.34251283 166.30504,3.01987917 165.463505,2.99955427 C164.642119,2.98001109 163.99062,2.30147216 164.000102,1.47635944" id="Fill-13" fill="#000000" mask="url(#mask-2)"></path>
        </g>
    </g>
</svg>