<?xml version="1.0" encoding="UTF-8"?>
<svg width="90px" height="68px" viewBox="0 0 90 68" version="1.1" xmlns="http://www.w3.org/2000/svg" xmlns:xlink="http://www.w3.org/1999/xlink">
    <g id="Page-1" stroke="none" stroke-width="1" fill="none" fill-rule="evenodd">
        <g id="placeholder" transform="translate(0.000000, -1.000000)" fill-rule="nonzero" fill="#000000">
            <g id="Group" transform="translate(0.000000, 0.637820)">
                <path d="M5.999999,0.36212 C2.710651,0.36212 -9.99999999e-07,3.07277 -9.99999999e-07,6.36212 L-9.99999999e-07,62.3622 C-9.99999999e-07,65.6515 2.710651,68.3622 5.999999,68.3622 L84.000001,68.3622 C87.289351,68.3622 90.000001,65.6515 90.000001,62.3622 L90.000001,6.36212 C90.000001,3.07277 87.289351,0.36212 84.000001,0.36212 L5.999999,0.36212 Z M5.999999,4.36212 L84.000001,4.36212 C85.142541,4.36212 86.000001,5.21958 86.000001,6.36212 L86.000001,48.2059 L69.249999,34.7997 C68.588019,34.2692 67.576729,34.2293 66.874999,34.7057 L52.093749,44.8619 L32.249999,28.79942 C31.835646,28.46087 31.281389,28.29921 30.749999,28.36192 C30.436643,28.40512 30.133993,28.52405 29.874999,28.70567 L3.999999,46.5494 L3.999999,6.36182 C3.999999,5.21928 4.857463,4.36182 5.999999,4.36182 L5.999999,4.36212 Z M51.999999,14.36222 C47.605407,14.36222 43.999999,17.96763 43.999999,22.36222 C43.999999,26.75681 47.605407,30.36222 51.999999,30.36222 C56.394589,30.36222 59.999999,26.75681 59.999999,22.36222 C59.999999,17.96763 56.394589,14.36222 51.999999,14.36222 Z M51.999999,18.36222 C54.232829,18.36222 55.999999,20.12939 55.999999,22.36222 C55.999999,24.59505 54.232829,26.36222 51.999999,26.36222 C49.767167,26.36222 47.999999,24.59505 47.999999,22.36222 C47.999999,20.12939 49.767167,18.36222 51.999999,18.36222 Z M30.906249,32.831 L50.749999,48.8934 C51.411979,49.424 52.423269,49.4639 53.124999,48.9874 L67.874999,38.8309 L86.000001,53.3309 L86.000001,62.3621 C86.000001,63.5047 85.142541,64.3621 84.000001,64.3621 L5.999999,64.3621 C4.857463,64.3621 3.999999,63.5047 3.999999,62.3621 L3.999999,51.3934 L30.906249,32.8309 L30.906249,32.831 Z" id="Shape"></path>
            </g>
        </g>
    </g>
</svg>
